<svg xmlns="http://www.w3.org/2000/svg" viewBox="0 0 32 32" fill="none">
  <rect width="32" height="32" rx="8" fill="#D61E2B"/>
  <path
    d="M20.5 7.5c-2.2 3.8-4.5 7.2-7 10.2-.6.7-1.3 1.3-2.1 1.8l-1.2.7c-.5.3-1 .5-1.5.6-.9.2-1.8.1-2.6-.3-.5-.2-.9-.6-1.1-1.1-.2-.6 0-1.2.5-1.6.4-.3.9-.5 1.4-.5.3 0 .6.1.9.2.5.2 1 .1 1.4-.2 2.8-2.2 5.3-4.9 7.4-8.1.3-.5.9-.7 1.4-.5.6.2.9.8.7 1.4-.1.3-.3.5-.5.7z"
    fill="white"
  />
  <path
    d="M11 22.5c1.2-1.8 2.6-3.4 4.2-4.8.4-.3.9-.4 1.4-.2.5.2.8.7.8 1.2 0 .3-.1.6-.3.8-1.4 1.2-2.6 2.6-3.6 4.2-.3.5-.9.7-1.4.5-.6-.2-.9-.8-.7-1.3.1-.2.1-.3.2-.4z"
    fill="white"
    opacity="0.9"
  />
</svg>
